<svg width="144" height="79" viewBox="0 0 144 79" fill="none" xmlns="http://www.w3.org/2000/svg">
<g filter="url(#filter0_dd_2381_99624)">
<path d="M32.8696 18.1216H113.62C120.523 18.1216 126.12 23.718 126.12 30.6216V45.4966H42.2446C37.067 45.4966 32.8696 41.2993 32.8696 36.1216V18.1216Z" fill="url(#paint0_linear_2381_99624)" shape-rendering="crispEdges"/>
<path d="M32.8696 18.1216H113.62C120.523 18.1216 126.12 23.718 126.12 30.6216V45.4966H42.2446C37.067 45.4966 32.8696 41.2993 32.8696 36.1216V18.1216Z" fill="url(#paint1_linear_2381_99624)" fill-opacity="0.2" style="mix-blend-mode:overlay" shape-rendering="crispEdges"/>
<g clip-path="url(#clip0_2381_99624)">
<path d="M51.8135 32.7856C51.8148 32.9847 51.7543 33.1793 51.6404 33.3426C51.5265 33.5059 51.3648 33.6299 51.1775 33.6975L48.0251 34.8572L46.8654 38.0072C46.7967 38.1938 46.6725 38.3548 46.5094 38.4685C46.3464 38.5822 46.1523 38.6432 45.9535 38.6432C45.7547 38.6432 45.5607 38.5822 45.3976 38.4685C45.2346 38.3548 45.1103 38.1938 45.0417 38.0072L43.8789 34.8608L40.7283 33.7012C40.5417 33.6325 40.3807 33.5082 40.267 33.3452C40.1533 33.1821 40.0923 32.9881 40.0923 32.7893C40.0923 32.5905 40.1533 32.3965 40.267 32.2334C40.3807 32.0704 40.5417 31.9461 40.7283 31.8774L43.8808 30.7178L45.0404 27.5677C45.1091 27.3812 45.2334 27.2202 45.3964 27.1064C45.5595 26.9927 45.7535 26.9317 45.9523 26.9317C46.1511 26.9317 46.3451 26.9927 46.5082 27.1064C46.6713 27.2202 46.7955 27.3812 46.8642 27.5677L48.0238 30.7202L51.1739 31.8799C51.3608 31.9465 51.5226 32.0693 51.6371 32.2315C51.7516 32.3936 51.8132 32.5872 51.8135 32.7856ZM48.3955 26.9263H49.3721V27.9028C49.3721 28.0323 49.4236 28.1565 49.5151 28.2481C49.6067 28.3397 49.7309 28.3911 49.8604 28.3911C49.9899 28.3911 50.1141 28.3397 50.2057 28.2481C50.2972 28.1565 50.3487 28.0323 50.3487 27.9028V26.9263H51.3252C51.4547 26.9263 51.5789 26.8748 51.6705 26.7833C51.7621 26.6917 51.8135 26.5675 51.8135 26.438C51.8135 26.3085 51.7621 26.1843 51.6705 26.0927C51.5789 26.0012 51.4547 25.9497 51.3252 25.9497H50.3487V24.9731C50.3487 24.8436 50.2972 24.7194 50.2057 24.6279C50.1141 24.5363 49.9899 24.4849 49.8604 24.4849C49.7309 24.4849 49.6067 24.5363 49.5151 24.6279C49.4236 24.7194 49.3721 24.8436 49.3721 24.9731V25.9497H48.3955C48.266 25.9497 48.1419 26.0012 48.0503 26.0927C47.9587 26.1843 47.9073 26.3085 47.9073 26.438C47.9073 26.5675 47.9587 26.6917 48.0503 26.7833C48.1419 26.8748 48.266 26.9263 48.3955 26.9263ZM53.7666 28.8794H53.2784V28.3911C53.2784 28.2616 53.2269 28.1374 53.1353 28.0458C53.0438 27.9543 52.9196 27.9028 52.7901 27.9028C52.6606 27.9028 52.5364 27.9543 52.4448 28.0458C52.3532 28.1374 52.3018 28.2616 52.3018 28.3911V28.8794H51.8135C51.684 28.8794 51.5598 28.9308 51.4683 29.0224C51.3767 29.114 51.3252 29.2382 51.3252 29.3677C51.3252 29.4972 51.3767 29.6214 51.4683 29.7129C51.5598 29.8045 51.684 29.856 51.8135 29.856H52.3018V30.3442C52.3018 30.4737 52.3532 30.5979 52.4448 30.6895C52.5364 30.7811 52.6606 30.8325 52.7901 30.8325C52.9196 30.8325 53.0438 30.7811 53.1353 30.6895C53.2269 30.5979 53.2784 30.4737 53.2784 30.3442V29.856H53.7666C53.8961 29.856 54.0203 29.8045 54.1119 29.7129C54.2035 29.6214 54.2549 29.4972 54.2549 29.3677C54.2549 29.2382 54.2035 29.114 54.1119 29.0224C54.0203 28.9308 53.8961 28.8794 53.7666 28.8794Z" fill="url(#paint2_linear_2381_99624)"/>
</g>
<path d="M58.854 36.8091V26.9653H62.8618C63.7806 26.9653 64.5353 27.1013 65.1259 27.3731C65.7165 27.6356 66.1524 28.02 66.4337 28.5263C66.7243 29.0231 66.8696 29.6231 66.8696 30.3263C66.8696 31.02 66.7243 31.62 66.4337 32.1263C66.1524 32.6325 65.7165 33.0216 65.1259 33.2935C64.5353 33.556 63.7806 33.6872 62.8618 33.6872H61.3853V36.8091H58.854ZM61.3853 31.606H62.5806C63.2274 31.606 63.6821 31.4981 63.9446 31.2825C64.2071 31.0669 64.3384 30.7481 64.3384 30.3263C64.3384 29.9044 64.2071 29.5856 63.9446 29.37C63.6821 29.1544 63.2274 29.0466 62.5806 29.0466H61.3853V31.606ZM68.2748 36.8091V29.356H70.2717V30.3685C70.3467 30.1997 70.4732 30.0216 70.6513 29.8341C70.8295 29.6466 71.0451 29.4919 71.2982 29.37C71.5513 29.2388 71.8326 29.1731 72.142 29.1731C72.3013 29.1731 72.4279 29.1825 72.5217 29.2013C72.6154 29.22 72.6998 29.2388 72.7748 29.2575V31.1278C72.7279 31.0997 72.6201 31.0669 72.4513 31.0294C72.2826 30.9919 72.0904 30.9731 71.8748 30.9731C71.5373 30.9731 71.2607 31.0388 71.0451 31.17C70.8388 31.3013 70.6842 31.4794 70.581 31.7044C70.4873 31.9294 70.4404 32.1825 70.4404 32.4638V36.8091H68.2748ZM77.4154 36.9919C76.6842 36.9919 76.0279 36.856 75.4467 36.5841C74.8654 36.3028 74.4013 35.8763 74.0545 35.3044C73.717 34.7325 73.5482 34.0153 73.5482 33.1528V32.8716C73.5482 32.0466 73.7123 31.3622 74.0404 30.8185C74.3685 30.2747 74.8138 29.8669 75.3763 29.595C75.9482 29.3138 76.581 29.1731 77.2748 29.1731C78.5029 29.1731 79.431 29.4919 80.0592 30.1294C80.6873 30.7575 81.0013 31.6716 81.0013 32.8716V33.6591H75.7701C75.7888 34.0247 75.8732 34.3294 76.0232 34.5731C76.1826 34.8169 76.3842 34.995 76.6279 35.1075C76.8717 35.2106 77.1342 35.2622 77.4154 35.2622C77.8279 35.2622 78.1513 35.2013 78.3857 35.0794C78.6295 34.9481 78.7888 34.7747 78.8638 34.5591H80.8607C80.7107 35.3747 80.3404 35.9841 79.7498 36.3872C79.1592 36.7903 78.381 36.9919 77.4154 36.9919ZM77.3451 30.9028C77.0826 30.9028 76.8342 30.945 76.5998 31.0294C76.3654 31.1138 76.1732 31.2544 76.0232 31.4513C75.8826 31.6388 75.8029 31.8966 75.7842 32.2247H78.8779C78.8779 31.8778 78.8076 31.6106 78.667 31.4231C78.5263 31.2263 78.3388 31.0903 78.1045 31.0153C77.8795 30.9403 77.6263 30.9028 77.3451 30.9028ZM82.4054 36.8091V29.356H84.4445V30.4247C84.6132 30.0966 84.8757 29.806 85.232 29.5528C85.5882 29.2997 86.0288 29.1731 86.5538 29.1731C87.1445 29.1731 87.5991 29.2856 87.9179 29.5106C88.246 29.7356 88.4851 30.0403 88.6351 30.4247C88.8226 30.0685 89.1132 29.7731 89.507 29.5388C89.9007 29.295 90.3648 29.1731 90.8991 29.1731C91.7054 29.1731 92.3195 29.4028 92.7413 29.8622C93.1632 30.3122 93.3741 30.9872 93.3741 31.8872V36.8091H91.2085V32.4216C91.2085 31.8966 91.1241 31.5263 90.9554 31.3106C90.796 31.0856 90.5335 30.9731 90.1679 30.9731C89.9523 30.9731 89.7507 31.0341 89.5632 31.156C89.3851 31.2685 89.2398 31.4325 89.1273 31.6481C89.0241 31.8638 88.9726 32.1216 88.9726 32.4216V36.8091H86.807V32.4216C86.807 31.8966 86.7226 31.5263 86.5538 31.3106C86.3945 31.0856 86.132 30.9731 85.7663 30.9731C85.5413 30.9731 85.3398 31.0341 85.1616 31.156C84.9835 31.2685 84.8382 31.4325 84.7257 31.6481C84.6226 31.8638 84.571 32.1216 84.571 32.4216V36.8091H82.4054ZM95.132 36.8091V29.356H97.2976V36.8091H95.132ZM96.2148 28.6528C95.8116 28.6528 95.4976 28.5497 95.2726 28.3435C95.057 28.1278 94.9491 27.856 94.9491 27.5278C94.9491 27.1997 95.057 26.9325 95.2726 26.7263C95.4976 26.5106 95.8116 26.4028 96.2148 26.4028C96.6179 26.4028 96.9273 26.5106 97.1429 26.7263C97.3679 26.9325 97.4804 27.1997 97.4804 27.5278C97.4804 27.856 97.3679 28.1278 97.1429 28.3435C96.9273 28.5497 96.6179 28.6528 96.2148 28.6528ZM101.691 36.9919C100.838 36.9919 100.186 36.7481 99.7362 36.2606C99.2862 35.7731 99.0612 35.0325 99.0612 34.0388V29.356H101.227V33.7013C101.227 34.1888 101.325 34.5591 101.522 34.8122C101.728 35.0653 102.057 35.1919 102.507 35.1919C102.825 35.1919 103.088 35.1263 103.294 34.995C103.51 34.8638 103.669 34.6856 103.772 34.4606C103.875 34.2356 103.927 33.9825 103.927 33.7013V29.356H106.092V36.8091H104.096V35.7966C103.899 36.1341 103.599 36.42 103.196 36.6544C102.802 36.8794 102.3 36.9919 101.691 36.9919ZM107.776 36.8091V29.356H109.815V30.4247C109.984 30.0966 110.246 29.806 110.603 29.5528C110.959 29.2997 111.4 29.1731 111.925 29.1731C112.515 29.1731 112.97 29.2856 113.289 29.5106C113.617 29.7356 113.856 30.0403 114.006 30.4247C114.193 30.0685 114.484 29.7731 114.878 29.5388C115.271 29.295 115.735 29.1731 116.27 29.1731C117.076 29.1731 117.69 29.4028 118.112 29.8622C118.534 30.3122 118.745 30.9872 118.745 31.8872V36.8091H116.579V32.4216C116.579 31.8966 116.495 31.5263 116.326 31.3106C116.167 31.0856 115.904 30.9731 115.539 30.9731C115.323 30.9731 115.121 31.0341 114.934 31.156C114.756 31.2685 114.61 31.4325 114.498 31.6481C114.395 31.8638 114.343 32.1216 114.343 32.4216V36.8091H112.178V32.4216C112.178 31.8966 112.093 31.5263 111.925 31.3106C111.765 31.0856 111.503 30.9731 111.137 30.9731C110.912 30.9731 110.71 31.0341 110.532 31.156C110.354 31.2685 110.209 31.4325 110.096 31.6481C109.993 31.8638 109.942 32.1216 109.942 32.4216V36.8091H107.776Z" fill="url(#paint3_linear_2381_99624)"/>
</g>
<defs>
<filter id="filter0_dd_2381_99624" x="0.0571289" y="0.934082" width="143.25" height="77.375" filterUnits="userSpaceOnUse" color-interpolation-filters="sRGB">
<feFlood flood-opacity="0" result="BackgroundImageFix"/>
<feColorMatrix in="SourceAlpha" type="matrix" values="0 0 0 0 0 0 0 0 0 0 0 0 0 0 0 0 0 0 127 0" result="hardAlpha"/>
<feOffset dx="-3.125" dy="3.125"/>
<feGaussianBlur stdDeviation="7.8125"/>
<feComposite in2="hardAlpha" operator="out"/>
<feColorMatrix type="matrix" values="0 0 0 0 0.0431373 0 0 0 0 0.054902 0 0 0 0 0.0823529 0 0 0 0.3 0"/>
<feBlend mode="normal" in2="BackgroundImageFix" result="effect1_dropShadow_2381_99624"/>
<feColorMatrix in="SourceAlpha" type="matrix" values="0 0 0 0 0 0 0 0 0 0 0 0 0 0 0 0 0 0 127 0" result="hardAlpha"/>
<feOffset dx="-7.8125" dy="7.8125"/>
<feGaussianBlur stdDeviation="12.5"/>
<feComposite in2="hardAlpha" operator="out"/>
<feColorMatrix type="matrix" values="0 0 0 0 0.0431373 0 0 0 0 0.054902 0 0 0 0 0.0823529 0 0 0 0.3 0"/>
<feBlend mode="normal" in2="effect1_dropShadow_2381_99624" result="effect2_dropShadow_2381_99624"/>
<feBlend mode="normal" in="SourceGraphic" in2="effect2_dropShadow_2381_99624" result="shape"/>
</filter>
<linearGradient id="paint0_linear_2381_99624" x1="79.4946" y1="18.1216" x2="79.4946" y2="45.4966" gradientUnits="userSpaceOnUse">
<stop stop-color="#FFEC00"/>
<stop offset="1" stop-color="#FFA100"/>
</linearGradient>
<linearGradient id="paint1_linear_2381_99624" x1="79.4946" y1="18.1216" x2="79.4946" y2="45.4966" gradientUnits="userSpaceOnUse">
<stop stop-opacity="0"/>
<stop offset="1"/>
</linearGradient>
<linearGradient id="paint2_linear_2381_99624" x1="47.235" y1="38.6434" x2="44.8446" y2="24.5878" gradientUnits="userSpaceOnUse">
<stop stop-color="#A3560A"/>
<stop offset="1" stop-color="#A68D0F"/>
</linearGradient>
<linearGradient id="paint3_linear_2381_99624" x1="89.1383" y1="40.8093" x2="88.2325" y2="22.4679" gradientUnits="userSpaceOnUse">
<stop stop-color="#A3560A"/>
<stop offset="1" stop-color="#A68D0F"/>
</linearGradient>
<clipPath id="clip0_2381_99624">
<rect width="15.625" height="15.625" fill="white" transform="translate(39.1196 23.9966)"/>
</clipPath>
</defs>
</svg>
