<svg width="90" height="82" viewBox="0 0 90 82" fill="none" xmlns="http://www.w3.org/2000/svg">
<g filter="url(#filter0_dd_2381_99787)">
<mask id="path-1-outside-1_2381_99787" maskUnits="userSpaceOnUse" x="32.782" y="17.2153" width="40" height="32" fill="black">
<rect fill="white" x="32.782" y="17.2153" width="40" height="32"/>
<path d="M36.782 17.2153H62.907C68.0847 17.2153 72.282 21.4127 72.282 26.5903V45.5903H46.157C40.9793 45.5903 36.782 41.393 36.782 36.2153V17.2153Z"/>
</mask>
<path d="M36.782 17.2153H62.907C68.0847 17.2153 72.282 21.4127 72.282 26.5903V45.5903H46.157C40.9793 45.5903 36.782 41.393 36.782 36.2153V17.2153Z" fill="url(#paint0_linear_2381_99787)" shape-rendering="crispEdges"/>
<path d="M36.782 17.2153H72.282H36.782ZM72.282 48.7153H46.157C39.2534 48.7153 33.657 43.1189 33.657 36.2153H39.907C39.907 39.6671 42.7052 42.4653 46.157 42.4653H72.282V48.7153ZM46.157 48.7153C39.2534 48.7153 33.657 43.1189 33.657 36.2153V17.2153H39.907V36.2153C39.907 39.6671 42.7052 42.4653 46.157 42.4653V48.7153ZM72.282 17.2153V45.5903V17.2153Z" fill="url(#paint1_linear_2381_99787)" mask="url(#path-1-outside-1_2381_99787)"/>
<path d="M43.2195 38.9028L46.3882 33.7278L43.407 28.9653H46.5945L48.5445 31.9841L50.4195 28.9653H53.532L50.5695 33.6341L53.7195 38.9028H50.5132L48.432 35.3591L46.3507 38.9028H43.2195ZM54.3772 38.9028V36.5028L58.7272 32.9028C59.2897 32.4403 59.7459 32.0341 60.0959 31.6841C60.4584 31.3216 60.7147 30.9903 60.8647 30.6903C61.0272 30.3778 61.1084 30.0528 61.1084 29.7153C61.1084 29.2778 60.9897 28.9403 60.7522 28.7028C60.5147 28.4653 60.1709 28.3466 59.7209 28.3466C59.1334 28.3466 58.6897 28.5341 58.3897 28.9091C58.0897 29.2841 57.9397 29.8341 57.9397 30.5591H54.5647C54.5647 29.4841 54.7522 28.5778 55.1272 27.8403C55.5147 27.0903 56.0897 26.5216 56.8522 26.1341C57.6147 25.7341 58.5709 25.5341 59.7209 25.5341C60.7959 25.5341 61.6834 25.7153 62.3834 26.0778C63.0959 26.4278 63.6272 26.9153 63.9772 27.5403C64.3272 28.1653 64.5022 28.8903 64.5022 29.7153C64.5022 30.3153 64.3647 30.8841 64.0897 31.4216C63.8147 31.9591 63.4397 32.4716 62.9647 32.9591C62.5022 33.4466 61.9647 33.9278 61.3522 34.4028L59.0834 36.1278H64.6897V38.9028H54.3772Z" fill="url(#paint2_linear_2381_99787)"/>
</g>
<defs>
<filter id="filter0_dd_2381_99787" x="0.844482" y="0.027832" width="88.625" height="81.5" filterUnits="userSpaceOnUse" color-interpolation-filters="sRGB">
<feFlood flood-opacity="0" result="BackgroundImageFix"/>
<feColorMatrix in="SourceAlpha" type="matrix" values="0 0 0 0 0 0 0 0 0 0 0 0 0 0 0 0 0 0 127 0" result="hardAlpha"/>
<feOffset dx="-3.125" dy="3.125"/>
<feGaussianBlur stdDeviation="7.8125"/>
<feComposite in2="hardAlpha" operator="out"/>
<feColorMatrix type="matrix" values="0 0 0 0 0.0431373 0 0 0 0 0.054902 0 0 0 0 0.0823529 0 0 0 0.2 0"/>
<feBlend mode="normal" in2="BackgroundImageFix" result="effect1_dropShadow_2381_99787"/>
<feColorMatrix in="SourceAlpha" type="matrix" values="0 0 0 0 0 0 0 0 0 0 0 0 0 0 0 0 0 0 127 0" result="hardAlpha"/>
<feOffset dx="-7.8125" dy="7.8125"/>
<feGaussianBlur stdDeviation="12.5"/>
<feComposite in2="hardAlpha" operator="out"/>
<feColorMatrix type="matrix" values="0 0 0 0 0.0431373 0 0 0 0 0.054902 0 0 0 0 0.0823529 0 0 0 0.2 0"/>
<feBlend mode="normal" in2="effect1_dropShadow_2381_99787" result="effect2_dropShadow_2381_99787"/>
<feBlend mode="normal" in="SourceGraphic" in2="effect2_dropShadow_2381_99787" result="shape"/>
</filter>
<linearGradient id="paint0_linear_2381_99787" x1="54.532" y1="17.2153" x2="54.532" y2="45.5903" gradientUnits="userSpaceOnUse">
<stop stop-color="#CAD2DB"/>
<stop offset="0.0001" stop-color="#EBF4FF"/>
<stop offset="1" stop-color="#7E8EA0"/>
</linearGradient>
<linearGradient id="paint1_linear_2381_99787" x1="54.532" y1="17.4735" x2="54.532" y2="45.5903" gradientUnits="userSpaceOnUse">
<stop stop-color="#BFC1C4"/>
<stop offset="1" stop-color="#4F5863"/>
</linearGradient>
<linearGradient id="paint2_linear_2381_99787" x1="54.2737" y1="42.7372" x2="50.4416" y2="19.5781" gradientUnits="userSpaceOnUse">
<stop stop-color="#37404D"/>
<stop offset="1" stop-color="#8C9199"/>
</linearGradient>
</defs>
</svg>
