<svg width="18" height="20" viewBox="0 0 18 20" fill="none" xmlns="http://www.w3.org/2000/svg">
<path d="M15.0972 1.49999C14.2087 0.499998 12.5586 0 10.2738 0H3.92717C3.54637 0 3.16558 0.374997 3.03864 0.749995L0.5 17.125C0.5 17.5 0.753864 17.75 1.00773 17.75H4.94262L5.9581 11.625V11.875C6.085 11.4999 6.4658 11.125 6.8466 11.125H8.7506C12.4316 11.125 15.2241 9.625 16.1126 5.5C16.1126 5.375 16.1126 5.25 16.1126 5.125C15.9857 5.125 15.9857 5.125 16.1126 5.125C16.2395 3.49999 15.9857 2.5 15.0972 1.49999Z" fill="white"/>
<path opacity="0.5" d="M15.9844 5.125C15.9844 5.25 15.9844 5.375 15.9844 5.5C15.0959 9.75005 12.3034 11.125 8.62238 11.125H6.71838C6.33758 11.125 5.95678 11.5 5.82988 11.8751L4.56055 19.5C4.56055 19.75 4.68748 20 5.06828 20H8.36848C8.74933 20 9.13008 19.75 9.13008 19.375V19.25L9.76473 15.375V15.125C9.76473 14.7499 10.1456 14.5 10.5263 14.5H11.0341C14.2074 14.5 16.746 13.25 17.3807 9.50005C17.6345 8 17.5076 6.625 16.746 5.75C16.6191 5.5 16.3652 5.25 15.9844 5.125Z" fill="white"/>
<path d="M15.0981 4.74976C14.9712 4.74976 14.8442 4.62476 14.7173 4.62476C14.5903 4.62476 14.4634 4.62476 14.3365 4.49976C13.8287 4.37476 13.321 4.37476 12.6863 4.37476H7.73603C7.60908 4.37476 7.48213 4.37476 7.35523 4.49976C7.10133 4.62476 6.97443 4.87476 6.97443 5.12474L5.95898 11.6248V11.8748C6.08588 11.4997 6.46668 11.1248 6.84748 11.1248H8.75153C12.4325 11.1248 15.225 9.62474 16.1135 5.49974C16.1135 5.37474 16.1135 5.24974 16.2404 5.12474C15.9866 4.99976 15.8597 4.87476 15.6058 4.87476C15.225 4.74976 15.225 4.74976 15.0981 4.74976Z" fill="white"/>
</svg>
